<svg t="1725417164841" class="icon" viewBox="0 0 1024 1024" version="1.1" xmlns="http://www.w3.org/2000/svg" p-id="16938" width="200" height="200"><path d="M629 444.6m-308.3 0a308.3 308.3 0 1 0 616.6 0 308.3 308.3 0 1 0-616.6 0Z" fill="#FFE4CC" p-id="16939"></path><path d="M742.9 325.9H515L353.8 487v228L515 876.2h227.9L904.1 715V487L742.9 325.9zM628.9 769c-92.8 0-168-75.2-168-168s75.2-168 168-168 168 75.2 168 168-75.2 168-168 168z" fill="#FFFFFF" p-id="16940"></path><path d="M742.9 888.1H515c-3.2 0-6.2-1.3-8.5-3.5L345.3 723.4c-2.2-2.2-3.5-5.3-3.5-8.5V487c0-3.2 1.3-6.2 3.5-8.5l161.2-161.2c2.2-2.2 5.3-3.5 8.5-3.5h227.9c3.2 0 6.2 1.3 8.5 3.5l161.2 161.2c2.2 2.2 3.5 5.3 3.5 8.5v228c0 3.2-1.3 6.2-3.5 8.5L751.4 884.6c-2.3 2.3-5.3 3.5-8.5 3.5z m-223-23.9h218L892.1 710V492L737.9 337.8h-218L365.7 492v218l154.2 154.2z m109-83.2c-99.2 0-180-80.7-180-180 0-99.2 80.7-180 180-180 99.2 0 180 80.7 180 180s-80.7 180-180 180z m0-336.1c-86.1 0-156.1 70-156.1 156.1s70 156.1 156.1 156.1S785 687.1 785 601s-70-156.1-156.1-156.1z" fill="#441B00" p-id="16941"></path><path d="M398.6 772.7l-54 85.5c-10 15.9-33.2 15.9-43.2 0l-54-85.5v-332h151.3v332z" fill="#F88E20" p-id="16942"></path><path d="M323 882c-13 0-24.8-6.5-31.7-17.5l-54-85.5c-1.2-1.9-1.8-4.1-1.8-6.4v-332c0-6.6 5.4-12 12-12h151.3c6.6 0 12 5.4 12 12v332c0 2.3-0.6 4.5-1.8 6.4l-54 85.5c-7.2 11-19.1 17.5-32 17.5z m-63.7-112.8l52.2 82.5c2.5 4 6.7 6.3 11.5 6.3s9-2.3 11.5-6.3l52.2-82.5V452.6H259.3v316.6z" fill="#441B00" p-id="16943"></path><path d="M103.2 306.9a219.8 137.7 0 1 0 439.6 0 219.8 137.7 0 1 0-439.6 0Z" fill="#FFFFFF" p-id="16944"></path><path d="M323 456.5c-60.9 0-118.4-15-161.8-42.2-45.1-28.3-70-66.4-70-107.5 0-41 24.9-79.2 70-107.5 43.4-27.2 100.8-42.2 161.8-42.2s118.4 15 161.8 42.2c45.1 28.3 70 66.4 70 107.5 0 41-24.9 79.2-70 107.5-43.5 27.3-100.9 42.2-161.8 42.2z m0-275.3c-56.5 0-109.4 13.7-149.1 38.5-37.9 23.7-58.8 54.7-58.8 87.2s20.9 63.5 58.8 87.2c39.6 24.8 92.6 38.5 149.1 38.5s109.4-13.6 149-38.5c37.9-23.7 58.8-54.7 58.8-87.2s-20.9-63.5-58.8-87.2c-39.6-24.8-92.5-38.5-149-38.5z" fill="#441B00" p-id="16945"></path><path d="M191.5 306.9a131.5 60.8 0 1 0 263 0 131.5 60.8 0 1 0-263 0Z" fill="#FFFFFF" p-id="16946"></path><path d="M323 379.7c-36.8 0-71.6-6.7-98-18.9-29.3-13.6-45.4-32.7-45.4-53.9s16.1-40.3 45.4-53.9c26.4-12.2 61.2-18.9 98-18.9s71.6 6.7 98 18.9c29.3 13.6 45.4 32.7 45.4 53.9s-16.1 40.3-45.4 53.9c-26.4 12.2-61.2 18.9-98 18.9z m0-121.7c-33.4 0-64.6 5.9-87.9 16.7-20.1 9.3-31.6 21-31.6 32.2s11.5 22.9 31.6 32.2c23.3 10.8 54.5 16.7 87.9 16.7s64.6-5.9 87.9-16.7c20.1-9.3 31.6-21 31.6-32.2S431 284 410.9 274.7C387.6 264 356.4 258 323 258z" fill="#441B00" p-id="16947"></path><path d="M398.6 494.9s-66.2 46.4-151.3 46.4" fill="#F88E20" p-id="16948"></path><path d="M247.3 553.3v-23.9c80.1 0 143.8-43.8 144.4-44.2l13.7 19.6c-2.8 1.9-70.2 48.5-158.1 48.5z" fill="#441B00" p-id="16949"></path><path d="M398.6 577.8s-66.2 46.4-151.3 46.4" fill="#F88E20" p-id="16950"></path><path d="M247.3 636.1v-23.9c80.1 0 143.8-43.8 144.4-44.2l13.7 19.6c-2.8 2-70.2 48.5-158.1 48.5z" fill="#441B00" p-id="16951"></path><path d="M398.6 660.7s-66.2 46.4-151.3 46.4" fill="#F88E20" p-id="16952"></path><path d="M247.3 719v-23.9c80.1 0 143.8-43.8 144.4-44.2l13.7 19.6c-2.8 2-70.2 48.5-158.1 48.5z" fill="#441B00" p-id="16953"></path><path d="M398.6 743.6S330.2 790 258.1 790" fill="#F88E20" p-id="16954"></path><path d="M258.1 801.9V778c67.6 0 133.2-43.9 133.8-44.3l13.4 19.8c-2.9 1.9-72.3 48.4-147.2 48.4z" fill="#441B00" p-id="16955"></path><path d="M630.1 599.9m-166.9 0a166.9 166.9 0 1 0 333.8 0 166.9 166.9 0 1 0-333.8 0Z" fill="#F88E20" p-id="16956"></path><path d="M630.1 778.7c-98.6 0-178.8-80.2-178.8-178.8S531.5 421 630.1 421s178.8 80.2 178.8 178.8-80.2 178.9-178.8 178.9z m0-333.8c-85.4 0-154.9 69.5-154.9 154.9s69.5 154.9 154.9 154.9S785 685.2 785 599.8s-69.5-154.9-154.9-154.9z" fill="#441B00" p-id="16957"></path><path d="M630.1 599.9m-84.7 0a84.7 84.7 0 1 0 169.4 0 84.7 84.7 0 1 0-169.4 0Z" fill="#FFFFFF" p-id="16958"></path><path d="M630.1 696.5c-53.3 0-96.6-43.4-96.6-96.6s43.4-96.6 96.6-96.6 96.6 43.4 96.6 96.6-43.3 96.6-96.6 96.6z m0-169.4c-40.1 0-72.7 32.6-72.7 72.7s32.6 72.7 72.7 72.7 72.7-32.6 72.7-72.7-32.6-72.7-72.7-72.7z" fill="#441B00" p-id="16959"></path></svg>